<svg width="39" height="39" viewBox="0 0 39 39" fill="none" xmlns="http://www.w3.org/2000/svg">
<rect opacity="0.01" x="1" y="1" width="37" height="37" fill="#D8D8D8" stroke="#979797"/>
<path fill-rule="evenodd" clip-rule="evenodd" d="M19.7571 18.4731C18.9862 18.4731 18.4724 18.9865 18.4724 19.7574V24.8957C18.4724 25.6666 18.9862 26.1815 19.7571 26.1815C20.5279 26.1815 21.0418 25.6666 21.0418 24.8957V19.7574C21.0418 18.9865 20.5279 18.4731 19.7571 18.4731Z" fill="#008CA3"/>
<path fill-rule="evenodd" clip-rule="evenodd" d="M19.7571 13.3333C19.3717 13.3333 19.1147 13.4628 18.8578 13.7187C18.6008 13.9761 18.4724 14.2336 18.4724 14.619C18.4724 14.747 18.4724 15.0044 18.6008 15.1324C18.7293 15.2603 18.7293 15.3898 18.8578 15.5178C19.2432 15.9032 19.7571 16.0312 20.2709 15.7753C20.3995 15.7753 20.3995 15.7753 20.5279 15.6458C20.5279 15.6458 20.6563 15.5178 20.7849 15.5178C20.9133 15.3898 21.0418 15.2603 21.0418 15.1324C21.0418 15.0044 21.0418 14.747 21.0418 14.619C21.0418 14.4895 21.0418 14.2336 20.9133 14.1041C20.7849 13.9761 20.7849 13.8482 20.6563 13.7187C20.3995 13.4628 20.1425 13.3333 19.7571 13.3333Z" fill="#008CA3"/>
<circle cx="19.5" cy="19.5" r="11.0625" stroke="#404040"/>
</svg>
