<svg width="20" height="18" viewBox="0 0 20 18" xmlns="http://www.w3.org/2000/svg">
<path fill-rule="evenodd" clip-rule="evenodd" d="M18.0395 1.70044H17.8109V2.81171C17.8109 3.12747 17.5484 3.38374 17.225 3.38374C16.9012 3.38374 16.6391 3.12747 16.6391 2.81171V1.70044H14.9211V2.81171C14.9211 3.12747 14.6586 3.38374 14.3352 3.38374C14.0113 3.38374 13.7492 3.12747 13.7492 2.81171V1.70044H12.0312V2.81171C12.0312 3.12747 11.7688 3.38374 11.4453 3.38374C11.1219 3.38374 10.8594 3.12747 10.8594 2.81171V1.70044H9.14062V2.81171C9.14062 3.12747 8.87813 3.38374 8.55469 3.38374C8.23125 3.38374 7.96875 3.12747 7.96875 2.81171V1.70044H6.25078V2.81171C6.25078 3.12747 5.98867 3.38374 5.66484 3.38374C5.34141 3.38374 5.07891 3.12747 5.07891 2.81171V1.70044H3.36094V2.81171C3.36094 3.12747 3.09883 3.38374 2.775 3.38374C2.45156 3.38374 2.18906 3.12747 2.18906 2.81171V1.70044H1.96016C0.879297 1.70044 0 2.55887 0 3.61446V4.75129H20V3.61446C20 2.55887 19.1203 1.70044 18.0395 1.70044Z" fill="#fff"/>
<path fill-rule="evenodd" clip-rule="evenodd" d="M0 16.0687C0 17.1243 0.879297 17.9827 1.96016 17.9827H18.0395C19.1203 17.9827 20 17.1243 20 16.0687V5.89526H0V16.0687ZM5.77305 10.7976C5.77305 10.4814 6.03555 10.2256 6.35898 10.2256H8.24492V8.38476C8.24492 8.06861 8.50703 7.81272 8.83086 7.81272H11.1695C11.493 7.81272 11.7555 8.06861 11.7555 8.38476V10.2256H13.6406C13.9641 10.2256 14.2266 10.4814 14.2266 10.7976V13.0804C14.2266 13.3965 13.9641 13.6524 13.6406 13.6524H11.7555V15.4932C11.7555 15.8094 11.493 16.0653 11.1695 16.0653H8.83086C8.50703 16.0653 8.24492 15.8094 8.24492 15.4932V13.6524H6.35898C6.03555 13.6524 5.77305 13.3965 5.77305 13.0804V10.7976Z" fill="#fff"/>
<path fill-rule="evenodd" clip-rule="evenodd" d="M9.14062 0.589124C9.14062 0.273361 8.87813 0.0170898 8.55469 0.0170898C8.23125 0.0170898 7.96875 0.273361 7.96875 0.589124V1.70039H9.14062V0.589124Z" fill="#fff"/>
<path fill-rule="evenodd" clip-rule="evenodd" d="M6.25079 0.589124C6.25079 0.273361 5.98868 0.0170898 5.66486 0.0170898C5.34142 0.0170898 5.07892 0.273361 5.07892 0.589124V1.70039H6.25079V0.589124Z" fill="#fff"/>
<path fill-rule="evenodd" clip-rule="evenodd" d="M3.36096 0.589124C3.36096 0.273361 3.09885 0.0170898 2.77502 0.0170898C2.45159 0.0170898 2.18909 0.273361 2.18909 0.589124V1.70039H3.36096V0.589124Z" fill="#fff"/>
<path fill-rule="evenodd" clip-rule="evenodd" d="M17.8109 0.589124C17.8109 0.273361 17.5484 0.0170898 17.225 0.0170898C16.9011 0.0170898 16.639 0.273361 16.639 0.589124V1.70039H17.8109V0.589124Z" fill="#fff"/>
<path fill-rule="evenodd" clip-rule="evenodd" d="M14.9211 0.589124C14.9211 0.273361 14.6586 0.0170898 14.3351 0.0170898C14.0113 0.0170898 13.7492 0.273361 13.7492 0.589124V1.70039H14.9211V0.589124Z" fill="#fff"/>
<path fill-rule="evenodd" clip-rule="evenodd" d="M12.0312 0.589124C12.0312 0.273361 11.7688 0.0170898 11.4453 0.0170898C11.1219 0.0170898 10.8594 0.273361 10.8594 0.589124V1.70039H12.0312V0.589124Z" fill="#fff"/>
</svg>
