<svg width="5" height="10" viewBox="0 0 5 10" fill="none" xmlns="http://www.w3.org/2000/svg">
<path d="M0.833323 9.08338C0.697025 9.08365 0.564938 9.03618 0.459989 8.94921C0.400921 8.90024 0.352096 8.8401 0.316307 8.77223C0.280518 8.70436 0.25847 8.6301 0.251426 8.5537C0.244382 8.47729 0.25248 8.40025 0.275256 8.32698C0.298032 8.25371 0.335038 8.18566 0.384156 8.12671L2.99749 5.00005L0.477489 1.86755C0.429034 1.80788 0.392849 1.73922 0.371014 1.66552C0.349179 1.59183 0.342124 1.51454 0.350255 1.43811C0.358386 1.36167 0.381543 1.2876 0.418394 1.22015C0.455246 1.15269 0.505065 1.09318 0.564989 1.04505C0.625344 0.991942 0.696024 0.951886 0.772594 0.927392C0.849164 0.902899 0.92997 0.894497 1.00994 0.902713C1.08991 0.910929 1.16732 0.935586 1.23731 0.975137C1.3073 1.01469 1.36836 1.06828 1.41666 1.13255L4.23416 4.63255C4.31995 4.73692 4.36686 4.86785 4.36686 5.00296C4.36686 5.13808 4.31995 5.269 4.23416 5.37338L1.31749 8.87338C1.25897 8.94397 1.18463 8.99978 1.10051 9.03626C1.01639 9.07275 0.924851 9.08889 0.833323 9.08338Z" fill="white"/>
</svg>
