<svg width="11" height="10" viewBox="0 0 11 10" fill="none" xmlns="http://www.w3.org/2000/svg">
<path d="M4.40152 0L3.30304 1.11111V2.22222H1.65532C1.02369 2.22222 0.622749 2.77778 0.55684 3.33333L0.00759987 8.88889C-0.0583089 9.44444 0.30419 10 1.10608 10H9.89392C10.6958 10 11.0583 9.44444 10.9924 8.88889L10.4432 3.33333C10.3773 2.77778 9.92688 2.22222 9.34468 2.22222H7.69696V1.11111L6.59848 0H4.40152ZM4.40152 1.11111H6.59848V2.22222H4.40152V1.11111ZM4.95076 3.88889H6.04924V5.55556H7.69696V6.66667H6.04924V8.33333H4.95076V6.66667H3.30304V5.55556H4.95076V3.88889Z" fill="#008CA3"/>
</svg>
