<svg width="12" height="12" viewBox="0 0 12 12" fill="none" xmlns="http://www.w3.org/2000/svg">
<path d="M4.80166 0.5L3.60332 1.72222V2.94444H1.8058C1.11676 2.94444 0.679362 3.55556 0.607462 4.16667L0.00829077 10.2778C-0.0636097 10.8889 0.331843 11.5 1.20663 11.5H10.7934C11.6682 11.5 12.0636 10.8889 11.9917 10.2778L11.3925 4.16667C11.3206 3.55556 10.8293 2.94444 10.1942 2.94444H8.39668V1.72222L7.19834 0.5H4.80166ZM4.80166 1.72222H7.19834V2.94444H4.80166V1.72222ZM5.40083 4.77778H6.59917V6.61111H8.39668V7.83333H6.59917V9.66667H5.40083V7.83333H3.60332V6.61111H5.40083V4.77778Z" fill="white"/>
</svg>
