<svg width="36" height="36" viewBox="0 0 36 36" fill="none" xmlns="http://www.w3.org/2000/svg">
<circle cx="18" cy="18" r="18" fill="#4ABBCD"/>
<path fill-rule="evenodd" clip-rule="evenodd" d="M25.4147 22.3905C24.9073 21.6152 24.213 20.5536 24.213 17.5319V16.1702C24.213 13.2974 22.3401 10.8668 19.78 10.0833V9.81562C19.78 8.81426 18.9844 8 18.0069 8C17.0294 8 16.2337 8.81426 16.2337 9.81562V10.0833C13.6738 10.8668 11.8008 13.2974 11.8008 16.1702V17.5319C11.8008 20.5536 11.1065 21.6152 10.5991 22.3905C10.3056 22.8395 10.0276 23.2637 10.0276 23.8865C10.0276 25.3663 13.0404 25.8856 15.4831 26.0644C15.8256 27.1871 16.8309 27.9716 18.0069 27.9716C19.1828 27.9716 20.1882 27.1871 20.5307 26.0644C22.9733 25.8856 25.9861 25.3663 25.9861 23.8865C25.9861 23.2637 25.7082 22.8395 25.4147 22.3905ZM18.8935 9.88801C18.6031 9.8452 18.3087 9.8155 18.0069 9.8155C17.7051 9.8155 17.4107 9.8452 17.1203 9.88801V9.8155C17.1203 9.31508 17.5178 8.90771 18.0069 8.90771C18.496 8.90771 18.8935 9.31503 18.8935 9.8155V9.88801Z" fill="white"/>
</svg>
