<svg width="16" height="16" viewBox="0 0 16 16" fill="none" xmlns="http://www.w3.org/2000/svg">
<circle cx="8" cy="8" r="8" fill="#008CA3"/>
<path d="M4.61103 3.55542C4.27214 3.55542 3.94713 3.69014 3.7075 3.92995C3.46787 4.16976 3.33325 4.49501 3.33325 4.83415L3.33325 13.0136C3.33327 13.0768 3.35203 13.1387 3.38717 13.1912C3.42231 13.2438 3.47225 13.2848 3.53067 13.309C3.58908 13.3331 3.65335 13.3394 3.71533 13.327C3.77731 13.3146 3.83422 13.2841 3.87886 13.2393L5.70161 11.4152C5.8214 11.2952 5.98388 11.2279 6.15331 11.2278H12.2777C12.6166 11.2278 12.9416 11.0931 13.1812 10.8533C13.4209 10.6135 13.5555 10.2882 13.5555 9.94909V4.83415C13.5555 4.49501 13.4209 4.16976 13.1812 3.92995C12.9416 3.69014 12.6166 3.55542 12.2777 3.55542H4.61103Z" fill="white"/>
<path d="M7.65914 5.11108C7.58915 5.11108 7.52203 5.13889 7.47254 5.18838C7.42305 5.23786 7.39525 5.30499 7.39525 5.37497V6.28392H6.4863C6.41631 6.28392 6.34919 6.31173 6.2997 6.36121C6.25021 6.4107 6.22241 6.47782 6.22241 6.54781V7.89658C6.22241 7.96657 6.25021 8.03369 6.2997 8.08318C6.34919 8.13266 6.41631 8.16047 6.4863 8.16047H7.39525V9.06942C7.39525 9.13941 7.42305 9.20653 7.47254 9.25602C7.52203 9.3055 7.58915 9.33331 7.65914 9.33331H9.00791C9.07789 9.33331 9.14502 9.3055 9.1945 9.25602C9.24399 9.20653 9.2718 9.13941 9.2718 9.06942V8.16047H10.1807C10.2507 8.16047 10.3179 8.13266 10.3673 8.08318C10.4168 8.03369 10.4446 7.96657 10.4446 7.89658V6.54781C10.4446 6.47782 10.4168 6.4107 10.3673 6.36121C10.3179 6.31173 10.2507 6.28392 10.1807 6.28392H9.2718V5.37497C9.2718 5.30499 9.24399 5.23786 9.1945 5.18838C9.14502 5.13889 9.07789 5.11108 9.00791 5.11108H7.65914Z" fill="#008CA3"/>
</svg>
