<svg width="12" height="16" viewBox="0 0 12 16" fill="none" xmlns="http://www.w3.org/2000/svg">
<path d="M4 0C3.46957 0 2.96086 0.210714 2.58579 0.585786C2.21071 0.960859 2 1.46957 2 2V12C2 12.5304 2.21071 13.0391 2.58579 13.4142C2.96086 13.7893 3.46957 14 4 14H10C10.5304 14 11.0391 13.7893 11.4142 13.4142C11.7893 13.0391 12 12.5304 12 12V2C12 1.46957 11.7893 0.960859 11.4142 0.585786C11.0391 0.210714 10.5304 0 10 0H4ZM3 2C3 1.73478 3.10536 1.48043 3.29289 1.29289C3.48043 1.10536 3.73478 1 4 1H10C10.2652 1 10.5196 1.10536 10.7071 1.29289C10.8946 1.48043 11 1.73478 11 2V12C11 12.2652 10.8946 12.5196 10.7071 12.7071C10.5196 12.8946 10.2652 13 10 13H4C3.73478 13 3.48043 12.8946 3.29289 12.7071C3.10536 12.5196 3 12.2652 3 12V2ZM0 4C8.91844e-06 3.64894 0.0924258 3.30406 0.267962 3.00003C0.443498 2.696 0.695969 2.44353 1 2.268V12.5C1 13.163 1.26339 13.7989 1.73223 14.2678C2.20107 14.7366 2.83696 15 3.5 15H9.732C9.55647 15.304 9.304 15.5565 8.99997 15.732C8.69594 15.9076 8.35106 16 8 16H3.5C2.57174 16 1.6815 15.6313 1.02513 14.9749C0.368749 14.3185 0 13.4283 0 12.5V4Z" fill="#8A8A8E"/>
</svg>
