<svg width="19" height="16" viewBox="0 0 19 16" fill="none" xmlns="http://www.w3.org/2000/svg">
<path fill-rule="evenodd" clip-rule="evenodd" d="M13.1668 0.666748H2.16683C1.6806 0.666748 1.21428 0.859902 0.870467 1.20372C0.52665 1.54754 0.333496 2.01385 0.333496 2.50008V13.5001C0.333496 13.9863 0.52665 14.4526 0.870467 14.7964C1.21428 15.1403 1.6806 15.3334 2.16683 15.3334H13.1668C13.1668 15.0903 13.2634 14.8571 13.4353 14.6852C13.6072 14.5133 13.8404 14.4167 14.0835 14.4167C14.3266 14.4167 14.5598 14.5133 14.7317 14.6852C14.9036 14.8571 15.0002 15.0903 15.0002 15.3334H16.8335C17.3197 15.3334 17.786 15.1403 18.1299 14.7964C18.4737 14.4526 18.6668 13.9863 18.6668 13.5001V2.50008C18.6668 2.01385 18.4737 1.54754 18.1299 1.20372C17.786 0.859902 17.3197 0.666748 16.8335 0.666748H15.0002C15.0002 0.909863 14.9036 1.14302 14.7317 1.31493C14.5598 1.48684 14.3266 1.58341 14.0835 1.58341C13.8404 1.58341 13.6072 1.48684 13.4353 1.31493C13.2634 1.14302 13.1668 0.909863 13.1668 0.666748ZM14.0835 5.251C14.3266 5.251 14.5598 5.15442 14.7317 4.98251C14.9036 4.8106 15.0002 4.57745 15.0002 4.33433V4.33341C15.0002 4.0903 14.9036 3.85714 14.7317 3.68523C14.5598 3.51333 14.3266 3.41675 14.0835 3.41675C13.8404 3.41675 13.6072 3.51333 13.4353 3.68523C13.2634 3.85714 13.1668 4.0903 13.1668 4.33341V4.33433C13.1668 4.57745 13.2634 4.8106 13.4353 4.98251C13.6072 5.15442 13.8404 5.251 14.0835 5.251V5.251ZM15.0002 8.001C15.0002 8.24411 14.9036 8.47727 14.7317 8.64918C14.5598 8.82109 14.3266 8.91767 14.0835 8.91767C13.8404 8.91767 13.6072 8.82109 13.4353 8.64918C13.2634 8.47727 13.1668 8.24411 13.1668 8.001V8.00008C13.1668 7.75697 13.2634 7.52381 13.4353 7.3519C13.6072 7.17999 13.8404 7.08341 14.0835 7.08341C14.3266 7.08341 14.5598 7.17999 14.7317 7.3519C14.9036 7.52381 15.0002 7.75697 15.0002 8.00008V8.001V8.001ZM14.0835 12.5843C14.3266 12.5843 14.5598 12.4878 14.7317 12.3158C14.9036 12.1439 15.0002 11.9108 15.0002 11.6677V11.6667C15.0002 11.4236 14.9036 11.1905 14.7317 11.0186C14.5598 10.8467 14.3266 10.7501 14.0835 10.7501C13.8404 10.7501 13.6072 10.8467 13.4353 11.0186C13.2634 11.1905 13.1668 11.4236 13.1668 11.6667V11.6677C13.1668 11.9108 13.2634 12.1439 13.4353 12.3158C13.6072 12.4878 13.8404 12.5843 14.0835 12.5843ZM11.1795 5.75883C11.3144 5.55656 11.3635 5.30897 11.3159 5.07054C11.2682 4.8321 11.1279 4.62234 10.9256 4.48741C10.7233 4.35249 10.4757 4.30344 10.2373 4.35105C9.99885 4.39867 9.78909 4.53906 9.65416 4.74133L6.60808 9.31092L5.56491 8.26867C5.39203 8.10169 5.16048 8.00929 4.92013 8.01138C4.67978 8.01347 4.44987 8.10987 4.27991 8.27983C4.10996 8.44979 4.01355 8.6797 4.01146 8.92005C4.00937 9.16039 4.10177 9.39195 4.26875 9.56483L6.10208 11.3982C6.19796 11.4942 6.31397 11.5678 6.44174 11.6136C6.56951 11.6593 6.70585 11.6762 6.84091 11.6628C6.97598 11.6495 7.10639 11.6063 7.22275 11.5365C7.33911 11.4666 7.4385 11.3718 7.51375 11.2588L11.1804 5.75883H11.1795Z" fill="#008CA3"/>
</svg>
