<svg width="18" height="18" viewBox="0 0 18 18" fill="none" xmlns="http://www.w3.org/2000/svg">
<path d="M6.14645 11.1464C5.95118 11.3417 5.95118 11.6583 6.14645 11.8536C6.34171 12.0488 6.65829 12.0488 6.85355 11.8536L6.14645 11.1464ZM11.8536 6.85355C12.0488 6.65829 12.0488 6.34171 11.8536 6.14645C11.6583 5.95118 11.3417 5.95118 11.1464 6.14645L11.8536 6.85355ZM6.85355 11.8536L11.8536 6.85355L11.1464 6.14645L6.14645 11.1464L6.85355 11.8536Z" fill="#0E852E"/>
<path d="M6.91667 7.33333C7.14679 7.33333 7.33333 7.14679 7.33333 6.91667C7.33333 6.68655 7.14679 6.5 6.91667 6.5C6.68655 6.5 6.5 6.68655 6.5 6.91667C6.5 7.14679 6.68655 7.33333 6.91667 7.33333Z" fill="#0E852E" stroke="#0E852E" stroke-linecap="square" stroke-linejoin="round"/>
<path d="M11.0833 11.4998C11.3134 11.4998 11.5 11.3133 11.5 11.0832C11.5 10.8531 11.3134 10.6665 11.0833 10.6665C10.8532 10.6665 10.6667 10.8531 10.6667 11.0832C10.6667 11.3133 10.8532 11.4998 11.0833 11.4998Z" fill="#0E852E" stroke="#0E852E" stroke-linecap="square" stroke-linejoin="round"/>
<path d="M2.08332 4.9999C2.08332 5.5982 2.56835 6.08323 3.16665 6.08323C3.76496 6.08323 4.24999 5.5982 4.24999 4.9999H2.08332ZM4.99999 3.16656V2.08323V3.16656ZM5.83332 3.16656V4.2499L5.83394 4.2499L5.83332 3.16656ZM7.12499 2.63323L7.88887 3.40141L7.89102 3.39926L7.12499 2.63323ZM7.70832 2.0499L8.47436 2.81593L8.4765 2.81377L7.70832 2.0499ZM9.00832 1.50928V0.425944V1.50928ZM10.3083 2.0499L9.54014 2.81378L9.54229 2.81593L10.3083 2.0499ZM10.8917 2.63323L10.1256 3.39927L10.1278 3.40141L10.8917 2.63323ZM12.1833 3.16656L12.1827 4.2499H12.1833V3.16656ZM13.0167 3.16656V2.08323V3.16656ZM14.85 5.83323H13.7667L13.7667 5.83385L14.85 5.83323ZM15.3833 7.1249L14.6151 7.88878L14.6173 7.89093L15.3833 7.1249ZM15.9667 7.70823L15.2006 8.47427L15.2028 8.47641L15.9667 7.70823ZM15.9667 10.3082L15.2028 9.54005L15.2006 9.5422L15.9667 10.3082ZM15.3833 10.8916L14.6173 10.1255L14.6151 10.1277L15.3833 10.8916ZM14.85 12.1832L13.7667 12.1826V12.1832H14.85ZM12.1833 14.8499V13.7666L12.1827 13.7666L12.1833 14.8499ZM10.8917 15.3832L10.1278 14.615L10.1256 14.6172L10.8917 15.3832ZM10.3083 15.9666L9.54229 15.2005L9.54014 15.2027L10.3083 15.9666ZM7.70832 15.9666L8.47651 15.2027L8.47435 15.2005L7.70832 15.9666ZM7.12499 15.3832L7.89102 14.6172L7.88886 14.615L7.12499 15.3832ZM5.83332 14.8499L5.83394 13.7666H5.83332V14.8499ZM3.16665 13.0166H2.08332H3.16665ZM3.16665 12.1832H4.24999L4.24999 12.1826L3.16665 12.1832ZM2.63332 10.8916L3.40151 10.1277L3.39935 10.1255L2.63332 10.8916ZM2.04999 10.3082L2.81602 9.5422L2.81386 9.54005L2.04999 10.3082ZM1.50937 9.00823H0.426036H1.50937ZM2.04999 7.70823L2.81387 8.47641L2.81602 8.47426L2.04999 7.70823ZM2.63332 7.1249L3.39936 7.89093L3.4015 7.88877L2.63332 7.1249ZM3.16665 5.83323L4.24999 5.83385V5.83323H3.16665ZM4.24999 4.9999C4.24999 4.40159 3.76496 3.91656 3.16665 3.91656C2.56835 3.91656 2.08332 4.40159 2.08332 4.9999H4.24999ZM4.24999 4.9999C4.24999 4.80098 4.32901 4.61022 4.46966 4.46957L2.93759 2.9375C2.39061 3.48448 2.08332 4.22635 2.08332 4.9999H4.24999ZM4.46966 4.46957C4.61031 4.32891 4.80108 4.2499 4.99999 4.2499V2.08323C4.22644 2.08323 3.48457 2.39052 2.93759 2.9375L4.46966 4.46957ZM4.99999 4.2499H5.83332V2.08323H4.99999V4.2499ZM5.83394 4.2499C6.60407 4.24946 7.34277 3.94444 7.88886 3.40141L6.36111 1.86505C6.22069 2.00468 6.03074 2.08312 5.8327 2.08323L5.83394 4.2499ZM7.89102 3.39926L8.47435 2.81593L6.94229 1.28386L6.35896 1.8672L7.89102 3.39926ZM8.4765 2.81377C8.5462 2.74368 8.62907 2.68806 8.72034 2.6501L7.88838 0.649533C7.53344 0.797136 7.21119 1.01344 6.94014 1.28602L8.4765 2.81377ZM8.72034 2.6501C8.8116 2.61215 8.90948 2.59261 9.00832 2.59261V0.425944C8.62392 0.425944 8.24331 0.50193 7.88838 0.649533L8.72034 2.6501ZM9.00832 2.59261C9.10717 2.59261 9.20504 2.61215 9.29631 2.6501L10.1283 0.649533C9.77333 0.50193 9.39272 0.425944 9.00832 0.425944V2.59261ZM9.29631 2.6501C9.38758 2.68806 9.47044 2.74368 9.54014 2.81377L11.0765 1.28602C10.8055 1.01344 10.4832 0.797135 10.1283 0.649533L9.29631 2.6501ZM9.54229 2.81593L10.1256 3.39926L11.6577 1.8672L11.0744 1.28386L9.54229 2.81593ZM10.1278 3.40141C10.6739 3.94444 11.4126 4.24946 12.1827 4.2499L12.1839 2.08323C11.9859 2.08312 11.796 2.00469 11.6555 1.86505L10.1278 3.40141ZM12.1833 4.2499H13.0167V2.08323H12.1833V4.2499ZM13.0167 4.2499C13.2156 4.2499 13.4063 4.32891 13.547 4.46957L15.0791 2.9375C14.5321 2.39052 13.7902 2.08323 13.0167 2.08323V4.2499ZM13.547 4.46957C13.6876 4.61022 13.7667 4.80098 13.7667 4.9999H15.9333C15.9333 4.22635 15.626 3.48448 15.0791 2.9375L13.547 4.46957ZM13.7667 4.9999V5.83323H15.9333V4.9999H13.7667ZM13.7667 5.83385C13.7671 6.60398 14.0721 7.34268 14.6151 7.88877L16.1515 6.36102C16.0119 6.2206 15.9334 6.03064 15.9333 5.83261L13.7667 5.83385ZM14.6173 7.89093L15.2006 8.47426L16.7327 6.9422L16.1494 6.35886L14.6173 7.89093ZM15.2028 8.47641C15.2729 8.54611 15.3285 8.62897 15.3664 8.72024L17.367 7.88829C17.2194 7.53336 17.0031 7.2111 16.7305 6.94005L15.2028 8.47641ZM15.3664 8.72024C15.4044 8.81152 15.4239 8.90939 15.4239 9.00823H17.5906C17.5906 8.62383 17.5146 8.24322 17.367 7.88829L15.3664 8.72024ZM15.4239 9.00823C15.4239 9.10707 15.4044 9.20494 15.3664 9.29622L17.367 10.1282C17.5146 9.77325 17.5906 9.39264 17.5906 9.00823H15.4239ZM15.3664 9.29622C15.3285 9.38749 15.2729 9.47035 15.2028 9.54005L16.7305 11.0764C17.0031 10.8054 17.2194 10.4831 17.367 10.1282L15.3664 9.29622ZM15.2006 9.5422L14.6173 10.1255L16.1494 11.6576L16.7327 11.0743L15.2006 9.5422ZM14.6151 10.1277C14.0721 10.6738 13.7671 11.4125 13.7667 12.1826L15.9333 12.1839C15.9334 11.9858 16.0119 11.7959 16.1515 11.6554L14.6151 10.1277ZM13.7667 12.1832V13.0166H15.9333V12.1832H13.7667ZM13.7667 13.0166C13.7667 13.2155 13.6876 13.4062 13.547 13.5469L15.0791 15.079C15.626 14.532 15.9333 13.7901 15.9333 13.0166H13.7667ZM13.547 13.5469C13.4063 13.6875 13.2156 13.7666 13.0167 13.7666V15.9332C13.7902 15.9332 14.5321 15.6259 15.0791 15.079L13.547 13.5469ZM13.0167 13.7666H12.1833V15.9332H13.0167V13.7666ZM12.1827 13.7666C11.4126 13.767 10.6739 14.072 10.1278 14.615L11.6555 16.1514C11.796 16.0118 11.9859 15.9333 12.1839 15.9332L12.1827 13.7666ZM10.1256 14.6172L9.54229 15.2005L11.0744 16.7326L11.6577 16.1493L10.1256 14.6172ZM9.54014 15.2027C9.47045 15.2728 9.38758 15.3284 9.29631 15.3664L10.1283 17.3669C10.4832 17.2193 10.8055 17.003 11.0765 16.7304L9.54014 15.2027ZM9.29631 15.3664C9.20503 15.4043 9.10716 15.4239 9.00832 15.4239V17.5905C9.39273 17.5905 9.77334 17.5145 10.1283 17.3669L9.29631 15.3664ZM9.00832 15.4239C8.90948 15.4239 8.81161 15.4043 8.72034 15.3664L7.88838 17.3669C8.24331 17.5145 8.62392 17.5905 9.00832 17.5905V15.4239ZM8.72034 15.3664C8.62906 15.3284 8.5462 15.2728 8.4765 15.2027L6.94014 16.7304C7.21119 17.003 7.53345 17.2193 7.88838 17.3669L8.72034 15.3664ZM8.47435 15.2005L7.89102 14.6172L6.35896 16.1493L6.94229 16.7326L8.47435 15.2005ZM7.88886 14.615C7.34277 14.072 6.60407 13.767 5.83394 13.7666L5.8327 15.9332C6.03074 15.9333 6.22069 16.0118 6.36111 16.1514L7.88886 14.615ZM5.83332 13.7666H4.99999V15.9332H5.83332V13.7666ZM4.99999 13.7666C4.80108 13.7666 4.61031 13.6875 4.46966 13.5469L2.93759 15.079C3.48457 15.6259 4.22644 15.9332 4.99999 15.9332V13.7666ZM4.46966 13.5469C4.32901 13.4062 4.24999 13.2155 4.24999 13.0166H2.08332C2.08332 13.7901 2.39061 14.532 2.93759 15.079L4.46966 13.5469ZM4.24999 13.0166V12.1832H2.08332V13.0166H4.24999ZM4.24999 12.1826C4.24955 11.4125 3.94454 10.6738 3.4015 10.1277L1.86514 11.6554C2.00478 11.7959 2.08321 11.9858 2.08332 12.1839L4.24999 12.1826ZM3.39935 10.1255L2.81602 9.5422L1.28395 11.0743L1.86729 11.6576L3.39935 10.1255ZM2.81386 9.54005C2.74377 9.47035 2.68815 9.38749 2.6502 9.29622L0.649624 10.1282C0.797227 10.4831 1.01353 10.8054 1.28611 11.0764L2.81386 9.54005ZM2.6502 9.29622C2.61224 9.20495 2.5927 9.10708 2.5927 9.00823H0.426036C0.426036 9.39263 0.502021 9.77324 0.649624 10.1282L2.6502 9.29622ZM2.5927 9.00823C2.5927 8.90938 2.61224 8.81151 2.6502 8.72024L0.649624 7.88829C0.502021 8.24322 0.426036 8.62383 0.426036 9.00823H2.5927ZM2.6502 8.72024C2.68815 8.62898 2.74377 8.54611 2.81386 8.47641L1.28611 6.94005C1.01354 7.2111 0.797227 7.53335 0.649624 7.88829L2.6502 8.72024ZM2.81602 8.47426L3.39935 7.89093L1.86729 6.35886L1.28396 6.9422L2.81602 8.47426ZM3.4015 7.88877C3.94454 7.34268 4.24955 6.60398 4.24999 5.83385L2.08332 5.83261C2.08321 6.03064 2.00478 6.2206 1.86514 6.36102L3.4015 7.88877ZM4.24999 5.83323V4.9999H2.08332V5.83323H4.24999Z" fill="#0E852E"/>
</svg>
