<svg width="20" height="15" viewBox="0 0 20 15" fill="none" xmlns="http://www.w3.org/2000/svg">
<path fill-rule="evenodd" clip-rule="evenodd" d="M0.74528 6.00623C0.424973 6.50219 0.205117 6.89304 0.0879772 7.12732C-0.0293259 7.36193 -0.0293259 7.63807 0.0879772 7.87268C0.205117 8.10696 0.424973 8.49781 0.74528 8.99377C1.27542 9.81463 1.90094 10.635 2.62122 11.4033C4.71776 13.6396 7.1835 15 10 15C12.8165 15 15.2822 13.6396 17.3788 11.4033C18.0991 10.635 18.7246 9.81463 19.2547 8.99377C19.575 8.49781 19.7949 8.10696 19.912 7.87268C20.0293 7.63807 20.0293 7.36193 19.912 7.12732C19.7949 6.89304 19.575 6.50219 19.2547 6.00623C18.7246 5.18537 18.0991 4.36502 17.3788 3.59672C15.2822 1.36041 12.8165 0 10 0C7.1835 0 4.71776 1.36041 2.62122 3.59672C1.90094 4.36502 1.27542 5.18537 0.74528 6.00623ZM3.83712 10.2634C3.19022 9.57335 2.62433 8.83121 2.14535 8.08956C2.00941 7.87906 1.88883 7.68136 1.78394 7.5C1.88883 7.31864 2.00941 7.12094 2.14535 6.91044C2.62433 6.1688 3.19022 5.42665 3.83712 4.73662C5.64684 2.80626 7.71234 1.66667 10 1.66667C12.2877 1.66667 14.3532 2.80626 16.1629 4.73662C16.8098 5.42665 17.3757 6.1688 17.8547 6.91044C17.9906 7.12094 18.1112 7.31864 18.2161 7.5C18.1112 7.68136 17.9906 7.87906 17.8547 8.08956C17.3757 8.83121 16.8098 9.57335 16.1629 10.2634C14.3532 12.1937 12.2877 13.3333 10 13.3333C7.71234 13.3333 5.64684 12.1937 3.83712 10.2634ZM9.99999 10.8333C8.15904 10.8333 6.66666 9.34095 6.66666 7.5C6.66666 5.65905 8.15904 4.16667 9.99999 4.16667C11.8409 4.16667 13.3333 5.65905 13.3333 7.5C13.3333 9.34095 11.8409 10.8333 9.99999 10.8333ZM11.6667 7.5C11.6667 8.42048 10.9205 9.16667 10 9.16667C9.07952 9.16667 8.33333 8.42048 8.33333 7.5C8.33333 6.57953 9.07952 5.83333 10 5.83333C10.9205 5.83333 11.6667 6.57953 11.6667 7.5Z" fill="black"/>
<mask id="mask0_27_756" style="mask-type:alpha" maskUnits="userSpaceOnUse" x="0" y="0" width="20" height="15">
<path fill-rule="evenodd" clip-rule="evenodd" d="M0.74528 6.00623C0.424973 6.50219 0.205117 6.89304 0.0879772 7.12732C-0.0293259 7.36193 -0.0293259 7.63807 0.0879772 7.87268C0.205117 8.10696 0.424973 8.49781 0.74528 8.99377C1.27542 9.81463 1.90094 10.635 2.62122 11.4033C4.71776 13.6396 7.1835 15 10 15C12.8165 15 15.2822 13.6396 17.3788 11.4033C18.0991 10.635 18.7246 9.81463 19.2547 8.99377C19.575 8.49781 19.7949 8.10696 19.912 7.87268C20.0293 7.63807 20.0293 7.36193 19.912 7.12732C19.7949 6.89304 19.575 6.50219 19.2547 6.00623C18.7246 5.18537 18.0991 4.36502 17.3788 3.59672C15.2822 1.36041 12.8165 0 10 0C7.1835 0 4.71776 1.36041 2.62122 3.59672C1.90094 4.36502 1.27542 5.18537 0.74528 6.00623ZM3.83712 10.2634C3.19022 9.57335 2.62433 8.83121 2.14535 8.08956C2.00941 7.87906 1.88883 7.68136 1.78394 7.5C1.88883 7.31864 2.00941 7.12094 2.14535 6.91044C2.62433 6.1688 3.19022 5.42665 3.83712 4.73662C5.64684 2.80626 7.71234 1.66667 10 1.66667C12.2877 1.66667 14.3532 2.80626 16.1629 4.73662C16.8098 5.42665 17.3757 6.1688 17.8547 6.91044C17.9906 7.12094 18.1112 7.31864 18.2161 7.5C18.1112 7.68136 17.9906 7.87906 17.8547 8.08956C17.3757 8.83121 16.8098 9.57335 16.1629 10.2634C14.3532 12.1937 12.2877 13.3333 10 13.3333C7.71234 13.3333 5.64684 12.1937 3.83712 10.2634ZM9.99999 10.8333C8.15904 10.8333 6.66666 9.34095 6.66666 7.5C6.66666 5.65905 8.15904 4.16667 9.99999 4.16667C11.8409 4.16667 13.3333 5.65905 13.3333 7.5C13.3333 9.34095 11.8409 10.8333 9.99999 10.8333ZM11.6667 7.5C11.6667 8.42048 10.9205 9.16667 10 9.16667C9.07952 9.16667 8.33333 8.42048 8.33333 7.5C8.33333 6.57953 9.07952 5.83333 10 5.83333C10.9205 5.83333 11.6667 6.57953 11.6667 7.5Z" fill="white"/>
</mask>
<g mask="url(#mask0_27_756)">
<rect y="-2.5" width="20" height="20" fill="#008CA3"/>
</g>
</svg>
