<svg width="30" height="30" viewBox="0 0 30 30" fill="none" xmlns="http://www.w3.org/2000/svg">
<path d="M0 4C0 1.79086 1.79086 0 4 0H26C28.2091 0 30 1.79086 30 4V26C30 28.2091 28.2091 30 26 30H4C1.79086 30 0 28.2091 0 26V4Z" fill="white"/>
<path fill-rule="evenodd" clip-rule="evenodd" d="M10.155 15C10.155 14.459 10.2469 13.94 10.4108 13.453L7.54115 11.308C6.98185 12.42 6.66675 13.672 6.66675 15C6.66675 16.327 6.98145 17.578 7.53995 18.689L10.4081 16.54C10.2457 16.056 10.155 15.539 10.155 15Z" fill="#FBBC05"/>
<path fill-rule="evenodd" clip-rule="evenodd" d="M15.1938 10.076C16.3953 10.076 17.4806 10.492 18.3333 11.174L20.8139 8.74999C19.3023 7.46199 17.3643 6.66699 15.1938 6.66699C11.824 6.66699 8.92792 8.55299 7.54102 11.308L10.4108 13.453C11.0721 11.489 12.9569 10.076 15.1938 10.076Z" fill="#EA4335"/>
<path fill-rule="evenodd" clip-rule="evenodd" d="M15.1938 19.924C12.9569 19.924 11.0721 18.511 10.4108 16.547L7.54102 18.691C8.92792 21.447 11.824 23.333 15.1938 23.333C17.2736 23.333 19.2593 22.611 20.7496 21.256L18.0255 19.195C17.2569 19.669 16.2891 19.924 15.1938 19.924Z" fill="#34A853"/>
<path fill-rule="evenodd" clip-rule="evenodd" d="M23.3333 15C23.3333 14.508 23.2558 13.977 23.1395 13.485H15.1938V16.705H19.7674C19.5387 17.802 18.9163 18.646 18.0256 19.195L20.7496 21.256C22.3151 19.834 23.3333 17.716 23.3333 15Z" fill="#4285F4"/>
</svg>
