<svg width="21" height="22" viewBox="0 0 21 22" fill="none" xmlns="http://www.w3.org/2000/svg">
<path d="M10.5004 7.07623C9.46394 7.07623 8.46997 7.48999 7.73712 8.22651C7.00426 8.96302 6.59254 9.96195 6.59254 11.0035C6.59254 12.0451 7.00426 13.044 7.73712 13.7806C8.46997 14.5171 9.46394 14.9308 10.5004 14.9308C11.5368 14.9308 12.5307 14.5171 13.2636 13.7806C13.9965 13.044 14.4082 12.0451 14.4082 11.0035C14.4082 9.96195 13.9965 8.96302 13.2636 8.22651C12.5307 7.48999 11.5368 7.07623 10.5004 7.07623ZM8.15567 11.0035C8.15567 10.3786 8.4027 9.77923 8.84241 9.33732C9.28213 8.89541 9.87851 8.64715 10.5004 8.64715C11.1222 8.64715 11.7186 8.89541 12.1583 9.33732C12.598 9.77923 12.8451 10.3786 12.8451 11.0035C12.8451 11.6285 12.598 12.2278 12.1583 12.6698C11.7186 13.1117 11.1222 13.3599 10.5004 13.3599C9.87851 13.3599 9.28213 13.1117 8.84241 12.6698C8.4027 12.2278 8.15567 11.6285 8.15567 11.0035ZM8.03062 21.7078C8.83954 21.9018 9.66878 22 10.5004 22C11.3312 21.9987 12.159 21.8999 12.967 21.7055C13.1991 21.6505 13.4087 21.5246 13.5668 21.3452C13.7249 21.1657 13.8239 20.9415 13.8501 20.7032L14.033 19.0302C14.0507 18.8477 14.1113 18.672 14.2098 18.5177C14.3084 18.3634 14.4421 18.2349 14.5999 18.1428C14.7577 18.0507 14.935 17.9976 15.1172 17.988C15.2994 17.9785 15.4813 18.0126 15.6477 18.0876L17.1757 18.76C17.3944 18.8567 17.6377 18.8826 17.8717 18.834C18.1058 18.7855 18.319 18.6649 18.4817 18.489C19.6107 17.2665 20.4534 15.8058 20.9483 14.2137C21.0193 13.9834 21.0171 13.7367 20.9422 13.5077C20.8673 13.2787 20.7233 13.0788 20.5302 12.9358L19.1788 11.9343C19.0312 11.8262 18.9112 11.6846 18.8285 11.5209C18.7458 11.3573 18.7028 11.1763 18.703 10.9927C18.7033 10.8092 18.7467 10.6283 18.8298 10.4649C18.9129 10.3014 19.0333 10.1601 19.1812 10.0523L20.5255 9.0548C20.7197 8.91215 20.8646 8.71198 20.9398 8.48237C21.0151 8.25276 21.017 8.00523 20.9452 7.7745C20.4512 6.18189 19.608 4.72094 18.4778 3.49923C18.3144 3.32363 18.1008 3.20328 17.8665 3.15475C17.6322 3.10622 17.3886 3.1319 17.1694 3.22825L15.6485 3.9006C15.4818 3.97363 15.3004 4.00622 15.1188 3.99572C14.9373 3.98522 14.7607 3.93194 14.6034 3.84018C14.4462 3.74843 14.3126 3.62076 14.2135 3.46752C14.1144 3.31428 14.0526 3.13975 14.033 2.95805L13.8486 1.29287C13.8228 1.05178 13.7224 0.82488 13.5616 0.644107C13.4008 0.463333 13.1876 0.337783 12.9521 0.285123C12.1496 0.104897 11.3305 0.00933854 10.5082 0C9.681 0.00984341 8.85705 0.10539 8.04938 0.285123C7.81383 0.336882 7.60048 0.461852 7.43958 0.642311C7.27867 0.822769 7.17838 1.04956 7.15292 1.29051L6.96769 2.95726C6.94746 3.13924 6.88511 3.31392 6.78562 3.46733C6.68614 3.62073 6.5523 3.74859 6.39481 3.84067C6.23732 3.93275 6.06057 3.98648 5.87871 3.99757C5.69684 4.00866 5.51492 3.9768 5.34751 3.90453L3.82659 3.23139C3.60714 3.13772 3.36441 3.11385 3.13106 3.163C2.8977 3.21215 2.68493 3.33196 2.52138 3.5063C1.39095 4.72919 0.547095 6.19076 0.0516382 7.78393C-0.0188792 8.01407 -0.0164407 8.26055 0.058616 8.48923C0.133673 8.71792 0.277633 8.91749 0.470556 9.0603L1.81875 10.0594C1.96562 10.168 2.08501 10.3098 2.1673 10.4733C2.24959 10.6369 2.29246 10.8175 2.29246 11.0008C2.29246 11.184 2.24959 11.3647 2.1673 11.5282C2.08501 11.6918 1.96562 11.8336 1.81875 11.9422L0.470556 12.9436C0.276903 13.0867 0.132526 13.287 0.0575678 13.5165C-0.0173902 13.746 -0.01919 13.9933 0.0524197 14.2239C0.547647 15.8181 1.39151 17.2808 2.52216 18.5047C2.62965 18.6208 2.75997 18.7133 2.90487 18.7761C3.04977 18.839 3.20608 18.871 3.3639 18.8699C3.52256 18.8699 3.67966 18.8369 3.82581 18.7733L5.35377 18.0986C5.52042 18.0262 5.70164 17.9942 5.88287 18.005C6.0641 18.0158 6.24028 18.0692 6.39724 18.1609C6.55421 18.2525 6.68759 18.3799 6.78666 18.5328C6.88574 18.6857 6.94774 18.8598 6.96769 19.0412L7.15136 20.7111C7.17804 20.948 7.27678 21.171 7.43412 21.3495C7.59147 21.528 7.79977 21.6534 8.03062 21.7086V21.7078ZM12.33 20.2421C11.1241 20.4907 9.88053 20.4907 8.67463 20.2421L8.52222 18.8754C8.44772 18.2068 8.13049 17.5893 7.63124 17.1411C7.24036 16.7952 6.76014 16.5675 6.24599 16.4841C5.73183 16.4007 5.20469 16.4651 4.72539 16.6699L3.4702 17.2197C2.66049 16.2879 2.03739 15.2077 1.63509 14.0386L2.74803 13.2123C3.09187 12.9576 3.37137 12.6254 3.56399 12.2423C3.75662 11.8591 3.85697 11.4359 3.85697 11.0067C3.85697 10.5774 3.75662 10.1542 3.56399 9.7711C3.37137 9.38799 3.09187 9.05573 2.74803 8.8011L1.63743 7.97715C2.0402 6.80913 2.66328 5.73011 3.47254 4.79917L4.72304 5.34899C5.06771 5.50195 5.44045 5.58062 5.81723 5.57992C6.4882 5.57781 7.13498 5.32793 7.63459 4.87783C8.1342 4.42772 8.45177 3.80878 8.52691 3.13871L8.67854 1.7665C9.28347 1.64868 9.89778 1.58585 10.5129 1.57799C11.1241 1.58585 11.7337 1.64868 12.3339 1.7665L12.4793 3.13321C12.5517 3.80371 12.8682 4.42364 13.3679 4.87379C13.759 5.2218 14.2406 5.45089 14.7563 5.53433C15.272 5.61777 15.8008 5.55213 16.2808 5.34507L17.5313 4.79524C18.3417 5.72593 18.9654 6.80533 19.368 7.97401L18.2558 8.7956C17.9102 9.04935 17.6291 9.38148 17.4353 9.76501C17.2414 10.1485 17.1404 10.5726 17.1404 11.0027C17.1404 11.4329 17.2414 11.857 17.4353 12.2405C17.6291 12.624 17.9102 12.9562 18.2558 13.2099L19.3672 14.0346C18.9642 15.2011 18.342 16.2789 17.5344 17.2095L16.2839 16.6596C15.8926 16.4846 15.4656 16.4052 15.0379 16.4278C14.6102 16.4503 14.1939 16.5743 13.8229 16.7896C13.452 17.0049 13.1371 17.3053 12.9038 17.6663C12.6705 18.0273 12.5256 18.4387 12.4808 18.8668L12.33 20.2414V20.2421Z" fill="#008CA3"/>
</svg>
