<svg width="22" height="22" viewBox="0 0 22 22" fill="none" xmlns="http://www.w3.org/2000/svg">
<path d="M9.19179 0.736904C9.29858 0.515734 9.4639 0.329491 9.66904 0.199258C9.87418 0.0690237 10.1109 0 10.3525 0C10.5941 0 10.8309 0.0690237 11.036 0.199258C11.2412 0.329491 11.4065 0.515734 11.5133 0.736904L14.0107 5.9008L19.597 6.73019C19.836 6.76561 20.0605 6.8686 20.2452 7.02748C20.4298 7.18637 20.5672 7.39483 20.6418 7.62926C20.7164 7.8637 20.7252 8.11477 20.6673 8.35406C20.6093 8.59335 20.4869 8.81131 20.3139 8.98329L19.6035 9.68986C19.1932 9.45922 18.7614 9.27075 18.3146 9.12724L19.4107 8.03767L13.8244 7.20828C13.617 7.17731 13.4201 7.09538 13.2506 6.96954C13.081 6.8437 12.944 6.67771 12.8513 6.48586L10.3538 1.32065L7.85378 6.48586C7.76091 6.67788 7.62369 6.84397 7.45395 6.96982C7.2842 7.09567 7.08701 7.17751 6.87938 7.20828L1.2931 8.03767L5.33562 12.0579C5.48569 12.2074 5.59791 12.3919 5.6626 12.5955C5.7273 12.7991 5.74253 13.0157 5.707 13.2267L4.75331 18.9056L9.07792 16.5852C9.11157 17.0553 9.18791 17.5136 9.30567 17.9547L5.35632 20.0744C5.14255 20.1889 4.90168 20.24 4.66094 20.222C4.4202 20.204 4.18918 20.1177 3.99399 19.9728C3.7988 19.8278 3.64723 19.63 3.5564 19.4018C3.46557 19.1735 3.4391 18.9239 3.47999 18.6811L4.43369 13.0035L0.391169 8.98329C0.218155 8.81131 0.0957494 8.59335 0.0378012 8.35406C-0.0201471 8.11477 -0.0113257 7.8637 0.0632675 7.62926C0.137861 7.39483 0.275249 7.18637 0.459888 7.02748C0.644528 6.8686 0.869051 6.76561 1.10806 6.73019L6.69434 5.90212L9.19179 0.735583V0.736904ZM22 16.0569C22 17.6331 21.3865 19.1448 20.2945 20.2593C19.2024 21.3739 17.7213 22 16.1769 22C14.6325 22 13.1514 21.3739 12.0594 20.2593C10.9673 19.1448 10.3538 17.6331 10.3538 16.0569C10.3538 14.4807 10.9673 12.969 12.0594 11.8545C13.1514 10.7399 14.6325 10.1138 16.1769 10.1138C17.7213 10.1138 19.2024 10.7399 20.2945 11.8545C21.3865 12.969 22 14.4807 22 16.0569ZM16.8239 13.4155C16.8239 13.2404 16.7558 13.0724 16.6344 12.9486C16.5131 12.8247 16.3485 12.7552 16.1769 12.7552C16.0053 12.7552 15.8407 12.8247 15.7194 12.9486C15.5981 13.0724 15.5299 13.2404 15.5299 13.4155V15.3966H13.5889C13.4173 15.3966 13.2527 15.4661 13.1314 15.59C13.01 15.7138 12.9419 15.8818 12.9419 16.0569C12.9419 16.232 13.01 16.4 13.1314 16.5238C13.2527 16.6477 13.4173 16.7172 13.5889 16.7172H15.5299V18.6983C15.5299 18.8734 15.5981 19.0414 15.7194 19.1652C15.8407 19.289 16.0053 19.3586 16.1769 19.3586C16.3485 19.3586 16.5131 19.289 16.6344 19.1652C16.7558 19.0414 16.8239 18.8734 16.8239 18.6983V16.7172H18.7649C18.9365 16.7172 19.1011 16.6477 19.2225 16.5238C19.3438 16.4 19.412 16.232 19.412 16.0569C19.412 15.8818 19.3438 15.7138 19.2225 15.59C19.1011 15.4661 18.9365 15.3966 18.7649 15.3966H16.8239V13.4155Z" fill="#008CA3"/>
</svg>
