<svg width="32" height="32" viewBox="0 0 32 32" fill="none" xmlns="http://www.w3.org/2000/svg">
<circle cx="16" cy="16" r="16" fill="#EBFBFF"/>
<path d="M14.6669 22C14.4488 22.0004 14.2375 21.9244 14.0696 21.7853C13.9751 21.7069 13.8969 21.6107 13.8397 21.5021C13.7824 21.3935 13.7471 21.2747 13.7359 21.1525C13.7246 21.0302 13.7376 20.907 13.774 20.7897C13.8104 20.6725 13.8697 20.5636 13.9482 20.4693L18.1296 15.4666L14.0976 10.4546C14.02 10.3592 13.9622 10.2493 13.9272 10.1314C13.8923 10.0135 13.881 9.88982 13.894 9.76752C13.907 9.64523 13.9441 9.52671 14.003 9.41879C14.062 9.31086 14.1417 9.21565 14.2376 9.13863C14.3341 9.05366 14.4472 8.98957 14.5697 8.95038C14.6923 8.91119 14.8215 8.89775 14.9495 8.91089C15.0775 8.92404 15.2013 8.96349 15.3133 9.02677C15.4253 9.09005 15.523 9.1758 15.6002 9.27863L20.1082 14.8786C20.2455 15.0456 20.3206 15.2551 20.3206 15.4713C20.3206 15.6875 20.2455 15.897 20.1082 16.064L15.4416 21.664C15.3479 21.7769 15.229 21.8662 15.0944 21.9246C14.9598 21.983 14.8134 22.0088 14.6669 22Z" fill="#008CA3"/>
</svg>
