<svg width="26" height="26" viewBox="0 0 26 26" fill="none" xmlns="http://www.w3.org/2000/svg">
<path d="M7.94447 5.77759H9.38892V7.22203H7.94447V5.77759Z" fill="#313E4C"/>
<path d="M7.94447 8.6665H9.38892V10.1109H7.94447V8.6665Z" fill="#313E4C"/>
<path d="M7.94447 11.5554H9.38892V12.9999H7.94447V11.5554Z" fill="#313E4C"/>
<path d="M7.94447 14.4446H9.38892V15.889H7.94447V14.4446Z" fill="#313E4C"/>
<path d="M7.94447 17.3335H9.38892V18.7779H7.94447V17.3335Z" fill="#313E4C"/>
<path d="M10.8334 8.6665H17.3334V10.1109H10.8334V8.6665Z" fill="#008CA3"/>
<path d="M10.8334 11.5554H17.3334V12.9999H10.8334V11.5554Z" fill="#008CA3"/>
<path d="M10.8334 14.4446H17.3334V15.889H10.8334V14.4446Z" fill="#008CA3"/>
<path d="M10.8334 17.3335H17.3334V18.7779H10.8334V17.3335Z" fill="#008CA3"/>
<path d="M10.8334 5.77759V7.22203H17.0879C16.8036 6.77483 16.5871 6.28809 16.4451 5.77759H10.8334Z" fill="#008CA3"/>
<path d="M20.2223 9.54791V23.1112H5.77786V2.88902H16.4523C16.592 2.37892 16.8062 1.89221 17.0879 1.44458H5.77786C5.39477 1.44458 5.02737 1.59676 4.75649 1.86765C4.4856 2.13853 4.33342 2.50593 4.33342 2.88902V23.1112C4.33342 23.4943 4.4856 23.8617 4.75649 24.1326C5.02737 24.4035 5.39477 24.5557 5.77786 24.5557H20.2223C20.6054 24.5557 20.9728 24.4035 21.2437 24.1326C21.5146 23.8617 21.6668 23.4943 21.6668 23.1112V9.75014C21.1783 9.74825 20.6925 9.68022 20.2223 9.54791Z" fill="#008CA3"/>
<path d="M21.6666 7.94463C23.661 7.94463 25.2777 6.32788 25.2777 4.33352C25.2777 2.33916 23.661 0.722412 21.6666 0.722412C19.6723 0.722412 18.0555 2.33916 18.0555 4.33352C18.0555 6.32788 19.6723 7.94463 21.6666 7.94463Z" fill="#EF716B"/>
</svg>
