<svg width="80" height="80" viewBox="0 0 80 80" fill="none" xmlns="http://www.w3.org/2000/svg">
<path d="M77.8907 26.8134C79.01 28.7212 78.3685 31.1752 76.4587 32.2912L24.0929 62.89C22.1879 64.0031 19.7413 63.3635 18.6248 61.4605L5.00791 38.2515C3.8886 36.3437 4.53013 33.8896 6.4399 32.7737L58.8057 2.17487C60.7107 1.06172 63.1573 1.70131 64.2738 3.60433L77.8907 26.8134Z" fill="#31978C"/>
<path d="M57.6954 6.74365L10.9712 34.0465C11.9875 35.7786 11.3636 38.0285 9.57819 39.0718L20.1398 57.0731C21.9253 56.0298 24.1967 56.5879 25.2128 58.32L71.9372 31.0171C70.921 29.285 71.5445 27.0353 73.3304 25.9918L62.7684 7.99055C60.9827 9.03412 58.7117 8.47574 57.6954 6.74365Z" fill="#44C4A1"/>
<path d="M49.5843 27.7794C46.2564 22.1072 39.9186 19.6359 35.4285 22.2596C30.9383 24.8834 29.9961 31.6086 33.324 37.2808C36.6519 42.953 42.9897 45.4242 47.4799 42.8005C51.9701 40.1768 52.9123 33.4516 49.5843 27.7794Z" fill="#31978C"/>
<path d="M64.4789 21.2037C65.6559 21.2037 66.6101 20.2515 66.6101 19.0768C66.6101 17.9022 65.6559 16.95 64.4789 16.95C63.3018 16.95 62.3477 17.9022 62.3477 19.0768C62.3477 20.2515 63.3018 21.2037 64.4789 21.2037Z" fill="#31978C"/>
<path d="M18.426 48.119C19.6031 48.119 20.5572 47.1668 20.5572 45.9921C20.5572 44.8175 19.6031 43.8652 18.426 43.8652C17.249 43.8652 16.2948 44.8175 16.2948 45.9921C16.2948 47.1668 17.249 48.119 18.426 48.119Z" fill="#3EA69B"/>
<path fill-rule="evenodd" clip-rule="evenodd" d="M45.8673 41.0596L45.0127 39.6029C43.0763 40.4847 41.0106 40.7182 38.8179 40.3029L39.259 37.714C40.9483 38.031 42.4395 37.9359 43.7369 37.4284L41.4655 33.5571C39.7481 34.0787 38.3676 34.2508 37.3246 34.0743C36.2815 33.8977 35.4223 33.2342 34.7473 32.0837C34.0724 30.9332 33.9221 29.7572 34.2995 28.5533C34.6774 27.3501 35.493 26.3381 36.7476 25.5157L36.1621 24.5179L37.4411 23.7705L38.038 24.788C39.567 24.0384 41.2459 23.7269 43.0756 23.8549L42.8525 26.4504C41.6054 26.3396 40.4272 26.5101 39.3141 26.9632L41.515 30.7144L41.5751 30.6792C43.319 30.1432 44.7299 29.9708 45.8078 30.1619C46.8878 30.3529 47.7686 31.031 48.4512 32.1945C49.1343 33.3588 49.2774 34.5488 48.8795 35.7626C48.4826 36.978 47.6247 38.0146 46.3034 38.8761L47.1462 40.3123L45.8673 41.0596ZM36.8997 29.0039C36.735 29.5015 36.7844 29.973 37.0459 30.4188C37.3073 30.8645 37.6476 31.1389 38.0663 31.242C38.4841 31.3468 39.1379 31.2994 40.0254 31.1026L37.9998 27.6503C37.4309 28.0546 37.0641 28.5056 36.8997 29.0039ZM46.1237 33.8096C46.3971 34.2757 46.4363 34.7708 46.2428 35.2938C46.0481 35.8185 45.6517 36.301 45.0507 36.7404L42.9437 33.1492C43.8832 32.9218 44.58 32.8581 45.0346 32.9588C45.4876 33.0606 45.8507 33.3444 46.1237 33.8096Z" fill="#44C4A1"/>
<path d="M56.0383 44.2231L44.5286 50.9486L26.8634 20.8395L38.3731 14.114L56.0383 44.2231Z" fill="#F6C358"/>
<path d="M46.262 49.9402L45.3819 50.4545L27.7167 20.3453L28.5968 19.831L46.262 49.9402Z" fill="white"/>
<path d="M55.1862 44.719L54.306 45.2333L36.6408 15.1241L37.521 14.6099L55.1862 44.719Z" fill="white"/>
<path d="M77.956 51.1569C78.3741 53.3273 76.9527 55.4255 74.782 55.8419L15.1923 67.2755C13.0239 67.6915 10.9285 66.2719 10.5108 64.1038L5.42379 37.6984C5.00566 35.528 6.42711 33.4299 8.59783 33.0134L68.1875 21.5799C70.3559 21.1638 72.4513 22.5834 72.869 24.7515L77.956 51.1569Z" fill="#3EA69B"/>
<path d="M12.7769 62.6609L8.0639 38.1903C9.41854 37.9305 10.3055 36.6241 10.0452 35.2722L67.6859 24.2158C67.9462 25.5677 69.2554 26.4529 70.6099 26.1931L75.3229 50.6637C73.9683 50.9235 73.0813 52.2299 73.3416 53.5818L15.701 64.6382C15.4407 63.2863 14.1315 62.401 12.7769 62.6609Z" fill="#44C4A1"/>
<path d="M50.9413 42.651C49.6978 36.1967 44.5479 31.7591 39.4386 32.7394C34.3293 33.7198 31.1954 39.7468 32.4388 46.2011C33.6823 52.6555 38.8322 57.093 43.9415 56.1127C49.0508 55.1324 52.1847 49.1054 50.9413 42.651Z" fill="#3EA69B"/>
<path d="M67.8929 41.528C69.0699 41.528 70.0241 40.5757 70.0241 39.4011C70.0241 38.2264 69.0699 37.2742 67.8929 37.2742C66.7158 37.2742 65.7617 38.2264 65.7617 39.4011C65.7617 40.5757 66.7158 41.528 67.8929 41.528Z" fill="#3EA69B"/>
<path d="M15.4904 51.5805C16.6675 51.5805 17.6216 50.6282 17.6216 49.4536C17.6216 48.2789 16.6675 47.3267 15.4904 47.3267C14.3134 47.3267 13.3592 48.2789 13.3592 49.4536C13.3592 50.6282 14.3134 51.5805 15.4904 51.5805Z" fill="#3EA69B"/>
<path fill-rule="evenodd" clip-rule="evenodd" d="M43.0062 53.935L42.687 52.2774C40.5668 52.4646 38.5413 51.9976 36.6127 50.8767L37.8932 48.5826C39.38 49.4433 40.8177 49.8498 42.2104 49.8029L41.3619 45.3974C39.5686 45.3179 38.2096 45.0209 37.285 44.5075C36.3605 43.9941 35.7722 43.0827 35.52 41.7734C35.2678 40.4642 35.519 39.3055 36.2769 38.2959C37.035 37.2872 38.1419 36.6044 39.5995 36.2462L39.3808 35.1107L40.8363 34.8315L41.0592 35.9894C42.7511 35.7912 44.438 36.056 46.1203 36.7853L45.0431 39.1582C43.9042 38.6389 42.7364 38.4079 41.5359 38.4646L42.358 42.7334L42.4265 42.7202C44.2496 42.795 45.6374 43.1017 46.5899 43.6405C47.5444 44.1799 48.1483 45.1121 48.4033 46.4362C48.6584 47.7612 48.3959 48.9307 47.6154 49.9426C46.8353 50.9565 45.6802 51.6484 44.1467 52.0212L44.4615 53.6557L43.0062 53.935ZM38.5779 39.5859C38.2564 40.0002 38.1455 40.4612 38.2431 40.9685C38.3408 41.4758 38.5699 41.8477 38.9302 42.0841C39.2889 42.3218 39.9215 42.4947 40.8239 42.6044L40.0672 38.6756C39.3958 38.8676 38.8992 39.1707 38.5779 39.5859ZM45.6693 47.185C45.7714 47.7153 45.6429 48.1951 45.2859 48.6238C44.9272 49.0539 44.3922 49.3768 43.6789 49.5913L42.8917 45.5045C43.8533 45.6027 44.5315 45.7743 44.9265 46.0205C45.3197 46.2672 45.5673 46.6555 45.6693 47.185Z" fill="#44C4A1"/>
<path d="M27.8948 74.0682C27.8948 77.3002 21.6505 79.9204 13.9478 79.9204C6.24502 79.9204 0.000793457 77.3002 0.000793457 74.0682V69.281H27.8948V74.0682Z" fill="#F6C358"/>
<path d="M13.9481 75.1262C21.6509 75.1262 27.8953 72.5074 27.8953 69.2771C27.8953 66.0467 21.6509 63.428 13.9481 63.428C6.24533 63.428 0.000976562 66.0467 0.000976562 69.2771C0.000976562 72.5074 6.24533 75.1262 13.9481 75.1262Z" fill="#FCD462"/>
<path fill-rule="evenodd" clip-rule="evenodd" d="M1.77557 69.281C1.77557 66.6803 7.22533 64.572 13.9478 64.572C20.6702 64.572 26.12 66.6803 26.12 69.281C26.12 71.8817 20.6702 73.99 13.9478 73.99C7.22533 73.99 1.77557 71.8817 1.77557 69.281ZM3.12809 69.2808C3.12809 71.5925 7.97232 73.4666 13.9478 73.4666C19.9232 73.4666 24.7674 71.5927 24.7674 69.2808C24.7674 66.9691 19.9232 65.095 13.9478 65.095C7.97232 65.095 3.12809 66.9691 3.12809 69.2808Z" fill="#DC8744"/>
<path fill-rule="evenodd" clip-rule="evenodd" d="M13.5021 72.534V71.961C11.6481 71.8878 9.98387 71.6027 8.51135 71.1058L9.99217 70.4231C11.1279 70.8051 12.2969 71.0325 13.5021 71.1058V69.5832C11.9733 69.442 10.854 69.2562 10.144 69.026C9.43412 68.7957 9.07916 68.4543 9.07916 68.0019C9.07916 67.5493 9.48696 67.1793 10.3058 66.8911C11.1247 66.6034 12.1896 66.4467 13.5021 66.4204V66.0278H14.7996V66.428C16.2871 66.4702 17.6938 66.6662 19.0195 67.0169L17.7005 67.739C16.8073 67.4931 15.8414 67.3414 14.7998 67.2837V68.759H14.8609C16.4161 68.9005 17.5585 69.0915 18.2883 69.3318C19.0196 69.5727 19.3845 69.922 19.3845 70.3796C19.3845 70.8376 18.9652 71.2106 18.1265 71.498C17.2878 71.786 16.18 71.9428 14.7998 71.9691V72.534H13.5021ZM12.0707 67.4683C11.7257 67.5858 11.554 67.7325 11.554 67.9078C11.554 68.083 11.6894 68.2217 11.9601 68.3235C12.2292 68.4257 12.7444 68.5237 13.5021 68.6179V67.26C12.8928 67.2811 12.4157 67.3505 12.0707 67.4683ZM16.9096 70.4544C16.9096 70.6376 16.7196 70.7894 16.3416 70.9095C15.9619 71.0299 15.4484 71.1034 14.7998 71.1292V69.7168C15.6104 69.811 16.165 69.9116 16.4639 70.0189C16.7609 70.1262 16.9096 70.2714 16.9096 70.4544Z" fill="#DC8744"/>
<path d="M27.8948 68.254C27.8948 71.4859 21.6505 74.1061 13.9478 74.1061C6.24502 74.1061 0.000793457 71.4861 0.000793457 68.254V63.4668H27.8948V68.254Z" fill="#F6C358"/>
<path d="M13.9481 69.3188C21.6509 69.3188 27.8953 66.7001 27.8953 63.4697C27.8953 60.2393 21.6509 57.6206 13.9481 57.6206C6.24533 57.6206 0.000976562 60.2393 0.000976562 63.4697C0.000976562 66.7001 6.24533 69.3188 13.9481 69.3188Z" fill="#FCD462"/>
<path fill-rule="evenodd" clip-rule="evenodd" d="M1.77557 63.4668C1.77557 60.866 7.22533 58.7578 13.9478 58.7578C20.6702 58.7578 26.12 60.866 26.12 63.4668C26.12 66.0675 20.6702 68.1757 13.9478 68.1757C7.22533 68.1757 1.77557 66.0675 1.77557 63.4668ZM3.12809 63.4666C3.12809 65.7783 7.97232 67.6524 13.9478 67.6524C19.9232 67.6524 24.7674 65.7785 24.7674 63.4666C24.7674 61.1549 19.9232 59.2808 13.9478 59.2808C7.97232 59.2808 3.12809 61.1549 3.12809 63.4666Z" fill="#DC8744"/>
<path fill-rule="evenodd" clip-rule="evenodd" d="M13.5021 66.7197V66.1468C11.6481 66.0736 9.98387 65.7885 8.51135 65.2916L9.99217 64.6089C11.1279 64.9909 12.2969 65.2182 13.5021 65.2916V63.769C11.9733 63.6278 10.854 63.442 10.144 63.2118C9.43412 62.9815 9.07916 62.6401 9.07916 62.1877C9.07916 61.7351 9.48696 61.3651 10.3058 61.0769C11.1247 60.7892 12.1896 60.6324 13.5021 60.6062V60.2136H14.7996V60.6138C16.2871 60.656 17.6938 60.852 19.0195 61.2027L17.7005 61.9248C16.8073 61.6789 15.8414 61.5272 14.7998 61.4694V62.9448H14.8609C16.4161 63.0863 17.5585 63.2773 18.2883 63.5178C19.0196 63.7586 19.3845 64.108 19.3845 64.5656C19.3845 65.0235 18.9652 65.3966 18.1265 65.684C17.2878 65.972 16.18 66.1288 14.7998 66.155V66.7199H13.5021V66.7197ZM12.0707 61.6541C11.7257 61.7716 11.554 61.9183 11.554 62.0935C11.554 62.2688 11.6894 62.4075 11.9601 62.5093C12.2292 62.6115 12.7444 62.7095 13.5021 62.8036V61.4458C12.8928 61.467 12.4157 61.5363 12.0707 61.6541ZM16.9096 64.6402C16.9096 64.8234 16.7196 64.9752 16.3416 65.0952C15.9619 65.2157 15.4484 65.2892 14.7998 65.315V63.9025C15.6104 63.9968 16.165 64.0974 16.4639 64.2047C16.7609 64.312 16.9096 64.4572 16.9096 64.6402Z" fill="#DC8744"/>
<path d="M27.8948 62.44C27.8948 65.672 21.6505 68.2922 13.9478 68.2922C6.24502 68.2922 0.000793457 65.6721 0.000793457 62.44V57.6528H27.8948V62.44Z" fill="#F6C358"/>
<path d="M13.9481 63.5031C21.6509 63.5031 27.8953 60.8844 27.8953 57.654C27.8953 54.4237 21.6509 51.8049 13.9481 51.8049C6.24533 51.8049 0.000976562 54.4237 0.000976562 57.654C0.000976562 60.8844 6.24533 63.5031 13.9481 63.5031Z" fill="#FCD462"/>
<path fill-rule="evenodd" clip-rule="evenodd" d="M1.77557 57.6528C1.77557 55.0521 7.22533 52.9438 13.9478 52.9438C20.6702 52.9438 26.12 55.0521 26.12 57.6528C26.12 60.2535 20.6702 62.3618 13.9478 62.3618C7.22533 62.3618 1.77557 60.2535 1.77557 57.6528ZM3.12809 57.6528C3.12809 59.9645 7.97232 61.8386 13.9478 61.8386C19.9232 61.8386 24.7674 59.9645 24.7674 57.6528C24.7674 55.3411 19.9232 53.467 13.9478 53.467C7.97232 53.467 3.12809 55.3411 3.12809 57.6528Z" fill="#DC8744"/>
<path fill-rule="evenodd" clip-rule="evenodd" d="M13.5021 60.9058V60.3328C11.6481 60.2596 9.98387 59.9745 8.51135 59.4776L9.99217 58.795C11.1279 59.1769 12.2969 59.4043 13.5021 59.4776V57.955C11.9733 57.8139 10.854 57.6281 10.144 57.3978C9.43412 57.1675 9.07916 56.8261 9.07916 56.3737C9.07916 55.9213 9.48696 55.5511 10.3058 55.2629C11.1247 54.9752 12.1896 54.8185 13.5021 54.7922V54.3997H14.7996V54.7998C16.2871 54.842 17.6938 55.038 19.0195 55.3887L17.7005 56.1108C16.8073 55.865 15.8414 55.7132 14.7998 55.6555V57.1309H14.8609C16.4161 57.2724 17.5585 57.4633 18.2883 57.7038C19.0196 57.9446 19.3845 58.294 19.3845 58.7516C19.3845 59.2096 18.9652 59.5826 18.1265 59.87C17.2878 60.158 16.18 60.3148 14.7998 60.3411V60.9059H13.5021V60.9058ZM12.0707 55.84C11.7257 55.9575 11.554 56.1042 11.554 56.2794C11.554 56.4547 11.6894 56.5932 11.9601 56.6952C12.2292 56.7974 12.7444 56.8954 13.5021 56.9895V55.6316C12.8928 55.6529 12.4157 55.7222 12.0707 55.84ZM16.9096 58.8263C16.9096 59.0095 16.7196 59.1612 16.3416 59.2813C15.9619 59.4015 15.4484 59.475 14.7998 59.501V58.0886C15.6104 58.1829 16.165 58.2835 16.4639 58.3907C16.7609 58.498 16.9096 58.6432 16.9096 58.8263Z" fill="#DC8744"/>
<path d="M27.8948 56.626C27.8948 59.858 21.6505 62.4782 13.9478 62.4782C6.24502 62.4782 0.000793457 59.8582 0.000793457 56.626V51.8389H27.8948V56.626Z" fill="#F6C358"/>
<path d="M13.9481 57.6872C21.6509 57.6872 27.8953 55.0685 27.8953 51.8381C27.8953 48.6077 21.6509 45.989 13.9481 45.989C6.24533 45.989 0.000976562 48.6077 0.000976562 51.8381C0.000976562 55.0685 6.24533 57.6872 13.9481 57.6872Z" fill="#FCD462"/>
<path fill-rule="evenodd" clip-rule="evenodd" d="M1.77557 51.8388C1.77557 49.2381 7.22533 47.1299 13.9478 47.1299C20.6702 47.1299 26.12 49.2381 26.12 51.8388C26.12 54.4396 20.6702 56.5478 13.9478 56.5478C7.22533 56.5478 1.77557 54.4396 1.77557 51.8388ZM3.12809 51.8388C3.12809 54.1506 7.97232 56.0246 13.9478 56.0246C19.9232 56.0246 24.7674 54.1506 24.7674 51.8388C24.7674 49.5271 19.9232 47.653 13.9478 47.653C7.97232 47.653 3.12809 49.5271 3.12809 51.8388Z" fill="#DC8744"/>
<path fill-rule="evenodd" clip-rule="evenodd" d="M13.5021 55.0918V54.5188C11.6481 54.4457 9.98387 54.1605 8.51135 53.6637L9.99217 52.9808C11.1279 53.3628 12.2969 53.5902 13.5021 53.6637V52.1411C11.9733 51.9999 10.854 51.8141 10.144 51.5838C9.43412 51.3536 9.07916 51.0121 9.07916 50.5597C9.07916 50.1073 9.48696 49.7372 10.3058 49.449C11.1247 49.1613 12.1896 49.0045 13.5021 48.9782V48.5857H14.7996V48.9859C16.2871 49.028 17.6938 49.2241 19.0195 49.5747L17.7005 50.2968C16.8073 50.051 15.8414 49.8993 14.7998 49.8415V51.3169H14.8609C16.4161 51.4584 17.5585 51.6494 18.2883 51.8899C19.0196 52.1307 19.3845 52.4801 19.3845 52.9377C19.3845 53.3956 18.9652 53.7687 18.1265 54.056C17.2878 54.3441 16.18 54.5008 14.7998 54.5271V55.092H13.5021V55.0918ZM12.0707 50.026C11.7257 50.1435 11.554 50.2902 11.554 50.4655C11.554 50.6407 11.6894 50.7793 11.9601 50.8812C12.2292 50.9834 12.7444 51.0814 13.5021 51.1756V49.8177C12.8928 49.8389 12.4157 49.9082 12.0707 50.026ZM16.9096 53.0123C16.9096 53.1955 16.7196 53.3472 16.3416 53.4673C15.9619 53.5877 15.4484 53.6611 14.7998 53.687V52.2746C15.6104 52.3689 16.165 52.4695 16.4639 52.5768C16.7609 52.684 16.9096 52.8293 16.9096 53.0123Z" fill="#DC8744"/>
<path d="M57.3066 74.0682C57.3066 77.3002 51.0624 79.9204 43.3597 79.9204C35.6569 79.9204 29.4127 77.3003 29.4127 74.0682V69.281H57.3066V74.0682Z" fill="#F6C358"/>
<path d="M43.3585 75.1262C51.0613 75.1262 57.3057 72.5074 57.3057 69.2771C57.3057 66.0467 51.0613 63.428 43.3585 63.428C35.6557 63.428 29.4114 66.0467 29.4114 69.2771C29.4114 72.5074 35.6557 75.1262 43.3585 75.1262Z" fill="#FCD462"/>
<path fill-rule="evenodd" clip-rule="evenodd" d="M31.1874 69.281C31.1874 66.6803 36.6372 64.572 43.3596 64.572C50.0822 64.572 55.5318 66.6803 55.5318 69.281C55.5318 71.8817 50.0821 73.99 43.3596 73.99C36.6372 73.99 31.1874 71.8817 31.1874 69.281ZM32.54 69.2808C32.54 71.5925 37.3842 73.4666 43.3596 73.4666C49.3351 73.4666 54.1793 71.5927 54.1793 69.2808C54.1793 66.9691 49.3351 65.095 43.3596 65.095C37.3842 65.095 32.54 66.9691 32.54 69.2808Z" fill="#DC8744"/>
<path fill-rule="evenodd" clip-rule="evenodd" d="M42.9139 72.534V71.961C41.06 71.8878 39.3957 71.6027 37.9232 71.1058L39.404 70.4231C40.5398 70.8051 41.7087 71.0325 42.9139 71.1058V69.5832C41.3852 69.442 40.2658 69.2562 39.5559 69.026C38.846 68.7957 38.491 68.4543 38.491 68.0019C38.491 67.5493 38.8988 67.1793 39.7177 66.8911C40.5366 66.6034 41.6014 66.4467 42.9139 66.4204V66.0278H44.2115V66.428C45.699 66.4702 47.1057 66.6662 48.4313 67.0169L47.1123 67.739C46.2192 67.4931 45.2533 67.3414 44.2117 67.2837V68.759H44.2728C45.8279 68.9005 46.9704 69.0915 47.7001 69.3318C48.4315 69.5727 48.7964 69.922 48.7964 70.3796C48.7964 70.8376 48.377 71.2106 47.5383 71.498C46.6996 71.786 45.5918 71.9428 44.2117 71.9691V72.534H42.9139ZM41.4826 67.4683C41.1375 67.5858 40.9658 67.7325 40.9658 67.9078C40.9658 68.083 41.1013 68.2217 41.372 68.3235C41.6411 68.4257 42.1562 68.5237 42.9139 68.6179V67.26C42.3047 67.2811 41.8276 67.3505 41.4826 67.4683ZM46.3216 70.4544C46.3216 70.6376 46.1317 70.7894 45.7536 70.9095C45.3738 71.0299 44.8605 71.1034 44.2118 71.1292V69.7168C45.0224 69.811 45.577 69.9116 45.8759 70.0189C46.173 70.1262 46.3216 70.2714 46.3216 70.4544Z" fill="#DC8744"/>
<path d="M57.3066 68.254C57.3066 71.4859 51.0624 74.1061 43.3597 74.1061C35.6569 74.1061 29.4127 71.4861 29.4127 68.254V63.4668H57.3066V68.254Z" fill="#F6C358"/>
<path d="M43.3585 69.3188C51.0613 69.3188 57.3057 66.7001 57.3057 63.4697C57.3057 60.2393 51.0613 57.6206 43.3585 57.6206C35.6557 57.6206 29.4114 60.2393 29.4114 63.4697C29.4114 66.7001 35.6557 69.3188 43.3585 69.3188Z" fill="#FCD462"/>
<path fill-rule="evenodd" clip-rule="evenodd" d="M31.1874 63.4668C31.1874 60.866 36.6372 58.7578 43.3596 58.7578C50.0822 58.7578 55.5318 60.866 55.5318 63.4668C55.5318 66.0675 50.0821 68.1757 43.3596 68.1757C36.6372 68.1757 31.1874 66.0675 31.1874 63.4668ZM32.54 63.4666C32.54 65.7783 37.3842 67.6524 43.3596 67.6524C49.3351 67.6524 54.1793 65.7785 54.1793 63.4666C54.1793 61.1549 49.3351 59.2808 43.3596 59.2808C37.3842 59.2808 32.54 61.1549 32.54 63.4666Z" fill="#DC8744"/>
<path fill-rule="evenodd" clip-rule="evenodd" d="M42.9139 66.7197V66.1468C41.06 66.0736 39.3957 65.7885 37.9232 65.2916L39.404 64.6089C40.5398 64.9909 41.7087 65.2182 42.9139 65.2916V63.769C41.3852 63.6278 40.2658 63.442 39.5559 63.2118C38.846 62.9815 38.491 62.6401 38.491 62.1877C38.491 61.7351 38.8988 61.3651 39.7177 61.0769C40.5366 60.7892 41.6014 60.6324 42.9139 60.6062V60.2136H44.2115V60.6138C45.699 60.656 47.1057 60.852 48.4313 61.2027L47.1123 61.9248C46.2192 61.6789 45.2533 61.5272 44.2117 61.4694V62.9448H44.2728C45.8279 63.0863 46.9704 63.2773 47.7001 63.5178C48.4315 63.7586 48.7964 64.108 48.7964 64.5656C48.7964 65.0235 48.377 65.3966 47.5383 65.684C46.6996 65.972 45.5918 66.1288 44.2117 66.155V66.7199H42.9139V66.7197ZM41.4826 61.6541C41.1375 61.7716 40.9658 61.9183 40.9658 62.0935C40.9658 62.2688 41.1013 62.4075 41.372 62.5093C41.6411 62.6115 42.1562 62.7095 42.9139 62.8036V61.4458C42.3047 61.467 41.8276 61.5363 41.4826 61.6541ZM46.3216 64.6402C46.3216 64.8234 46.1317 64.9752 45.7536 65.0952C45.3738 65.2157 44.8605 65.2892 44.2118 65.315V63.9025C45.0224 63.9968 45.577 64.0974 45.8759 64.2047C46.173 64.312 46.3216 64.4572 46.3216 64.6402Z" fill="#DC8744"/>
</svg>
