<svg width="4" height="15" viewBox="0 0 4 15" fill="none" xmlns="http://www.w3.org/2000/svg">
<path d="M1.75 2.5C2.16421 2.5 2.5 2.16421 2.5 1.75C2.5 1.33579 2.16421 1 1.75 1C1.33579 1 1 1.33579 1 1.75C1 2.16421 1.33579 2.5 1.75 2.5Z" stroke="#008CA3" stroke-width="2" stroke-linecap="round" stroke-linejoin="round"/>
<path d="M1.75 8C2.16421 8 2.5 7.66421 2.5 7.25C2.5 6.83579 2.16421 6.5 1.75 6.5C1.33579 6.5 1 6.83579 1 7.25C1 7.66421 1.33579 8 1.75 8Z" stroke="#008CA3" stroke-width="2" stroke-linecap="round" stroke-linejoin="round"/>
<path d="M1.75 13.5C2.16421 13.5 2.5 13.1642 2.5 12.75C2.5 12.3358 2.16421 12 1.75 12C1.33579 12 1 12.3358 1 12.75C1 13.1642 1.33579 13.5 1.75 13.5Z" stroke="#008CA3" stroke-width="2" stroke-linecap="round" stroke-linejoin="round"/>
</svg>
