<svg width="16" height="18" viewBox="0 0 16 18" fill="none" xmlns="http://www.w3.org/2000/svg">
<path d="M16 3.5433C14.4244 5.35495 12.2942 6.57915 9.95022 7.02C9.75895 6.66547 9.47693 6.36962 9.13378 6.16351C8.79062 5.9574 8.39899 5.84864 8 5.84864C7.60101 5.84864 7.20938 5.9574 6.86622 6.16351C6.52307 6.36962 6.24105 6.66547 6.04978 7.02C3.70577 6.57915 1.57556 5.35495 0 3.5433V0.9C0 0.661305 0.0936505 0.432387 0.260349 0.263604C0.427048 0.0948211 0.653141 0 0.888889 0H15.1111C15.3469 0 15.573 0.0948211 15.7397 0.263604C15.9064 0.432387 16 0.661305 16 0.9V3.5433ZM16 6.0516V17.1C16 17.3387 15.9064 17.5676 15.7397 17.7364C15.573 17.9052 15.3469 18 15.1111 18H0.888889C0.653141 18 0.427048 17.9052 0.260349 17.7364C0.0936505 17.5676 0 17.3387 0 17.1V6.0516C1.68639 7.48853 3.72072 8.44416 5.89333 8.82C6.04196 9.26646 6.3252 9.65445 6.70314 9.92929C7.08108 10.2041 7.53468 10.352 8 10.352C8.46532 10.352 8.91892 10.2041 9.29686 9.92929C9.6748 9.65445 9.95804 9.26646 10.1067 8.82C12.2793 8.44416 14.3136 7.48853 16 6.0516Z" fill="#AEAEB2"/>
</svg>
