<svg width="10" height="12" viewBox="0 0 10 12" fill="none" xmlns="http://www.w3.org/2000/svg">
<path d="M4.99996 11.2501C4.26317 10.6216 3.58024 9.93264 2.95829 9.19034C2.02496 8.07559 0.916626 6.41543 0.916626 4.83343C0.916222 4.02549 1.15551 3.23559 1.6042 2.56369C2.05289 1.8918 2.69082 1.36811 3.43725 1.05891C4.18368 0.749707 5.00506 0.668889 5.79744 0.826681C6.58983 0.984474 7.31759 1.37378 7.88863 1.94534C8.26882 2.32385 8.57016 2.77399 8.77523 3.26973C8.98029 3.76547 9.085 4.29695 9.08329 4.83343C9.08329 6.41543 7.97496 8.07559 7.04163 9.19034C6.41968 9.93264 5.73674 10.6216 4.99996 11.2501ZM4.99996 3.08343C4.53583 3.08343 4.09071 3.2678 3.76252 3.59599C3.43433 3.92418 3.24996 4.3693 3.24996 4.83343C3.24996 5.29756 3.43433 5.74268 3.76252 6.07087C4.09071 6.39905 4.53583 6.58343 4.99996 6.58343C5.46409 6.58343 5.90921 6.39905 6.2374 6.07087C6.56559 5.74268 6.74996 5.29756 6.74996 4.83343C6.74996 4.3693 6.56559 3.92418 6.2374 3.59599C5.90921 3.2678 5.46409 3.08343 4.99996 3.08343Z" fill="white"/>
</svg>
