<svg width="18" height="18" viewBox="0 0 18 18" fill="none" xmlns="http://www.w3.org/2000/svg">
<path fill-rule="evenodd" clip-rule="evenodd" d="M16.9024 15.9597L12.2545 11.3118C13.136 10.2234 13.6667 8.8398 13.6667 7.33336C13.6667 3.84116 10.8255 1 7.33333 1C3.84113 1 1 3.84116 1 7.33336C1 10.8256 3.84116 13.6667 7.33336 13.6667C8.8398 13.6667 10.2234 13.136 11.3118 12.2545L15.9597 16.9024C16.0899 17.0325 16.3009 17.0325 16.4311 16.9024L16.9024 16.4311C17.0325 16.3009 17.0325 16.0898 16.9024 15.9597ZM7.33336 12.3334C4.5762 12.3334 2.33335 10.0905 2.33335 7.33336C2.33335 4.5762 4.5762 2.33335 7.33336 2.33335C10.0905 2.33335 12.3334 4.5762 12.3334 7.33336C12.3334 10.0905 10.0905 12.3334 7.33336 12.3334Z" fill="#8A8A8E"/>
<path d="M16.9024 15.9597L16.7963 16.0657L16.7963 16.0657L16.9024 15.9597ZM12.2545 11.3118L12.1379 11.2174L12.0529 11.3223L12.1484 11.4178L12.2545 11.3118ZM11.3118 12.2545L11.4178 12.1484L11.3223 12.0529L11.2174 12.1379L11.3118 12.2545ZM15.9597 16.9024L15.8536 17.0084L15.8536 17.0085L15.9597 16.9024ZM16.4311 16.9024L16.5371 17.0085L16.5372 17.0084L16.4311 16.9024ZM16.9024 16.4311L17.0085 16.5371L17.0085 16.5371L16.9024 16.4311ZM17.0084 15.8536L12.3605 11.2057L12.1484 11.4178L16.7963 16.0657L17.0084 15.8536ZM12.371 11.4062C13.2733 10.2923 13.8167 8.87569 13.8167 7.33336H13.5167C13.5167 8.80391 12.9988 10.1545 12.1379 11.2174L12.371 11.4062ZM13.8167 7.33336C13.8167 3.75832 10.9084 0.85 7.33333 0.85V1.15C10.7427 1.15 13.5167 3.92401 13.5167 7.33336H13.8167ZM7.33333 0.85C3.75829 0.85 0.85 3.75832 0.85 7.33336H1.15C1.15 3.92401 3.92398 1.15 7.33333 1.15V0.85ZM0.85 7.33336C0.85 10.9084 3.75832 13.8167 7.33336 13.8167V13.5167C3.92401 13.5167 1.15 10.7427 1.15 7.33336H0.85ZM7.33336 13.8167C8.87569 13.8167 10.2923 13.2732 11.4062 12.3711L11.2174 12.1379C10.1545 12.9988 8.80391 13.5167 7.33336 13.5167V13.8167ZM11.2057 12.3606L15.8536 17.0084L16.0657 16.7963L11.4178 12.1484L11.2057 12.3606ZM15.8536 17.0085C16.0424 17.1972 16.3484 17.1972 16.5371 17.0085L16.3251 16.7963C16.2534 16.8679 16.1374 16.8679 16.0657 16.7963L15.8536 17.0085ZM16.5372 17.0084L17.0085 16.5371L16.7963 16.325L16.325 16.7963L16.5372 17.0084ZM17.0085 16.5371C17.1972 16.3484 17.1972 16.0423 17.0084 15.8536L16.7963 16.0657C16.8679 16.1373 16.8679 16.2534 16.7963 16.325L17.0085 16.5371ZM7.33336 12.1834C4.65904 12.1834 2.48335 10.0077 2.48335 7.33336H2.18335C2.18335 10.1734 4.49335 12.4834 7.33336 12.4834V12.1834ZM2.48335 7.33336C2.48335 4.65904 4.65904 2.48335 7.33336 2.48335V2.18335C4.49335 2.18335 2.18335 4.49335 2.18335 7.33336H2.48335ZM7.33336 2.48335C10.0077 2.48335 12.1834 4.65904 12.1834 7.33336H12.4834C12.4834 4.49335 10.1734 2.18335 7.33336 2.18335V2.48335ZM12.1834 7.33336C12.1834 10.0077 10.0077 12.1834 7.33336 12.1834V12.4834C10.1734 12.4834 12.4834 10.1734 12.4834 7.33336H12.1834Z" fill="#8A8A8E"/>
</svg>
