<svg width="40" height="40" viewBox="0 0 40 40" fill="none" xmlns="http://www.w3.org/2000/svg">
<path fill-rule="evenodd" clip-rule="evenodd" d="M10.625 3.75C9.93458 3.75 9.375 4.29152 9.375 4.95967V5H6.83593C6.16709 5 5.625 5.54873 5.625 6.22578V12.0687C5.625 17.156 9.47136 21.3507 14.375 21.8295V27.8448C14.375 32.4793 18.1598 36.25 22.8125 36.25C27.4648 36.25 31.25 32.4793 31.25 27.8448V22.943C33.0552 22.4038 34.3747 20.728 34.375 18.75C34.3749 16.3375 32.4123 14.375 30.0002 14.375C27.5874 14.375 25.625 16.3375 25.625 18.75C25.625 20.7606 26.9883 22.459 28.8393 22.9688V27.8448C28.8393 31.1553 26.1357 33.8485 22.8125 33.8485C19.4893 33.8485 16.7857 31.1553 16.7857 27.8448V21.7618C21.4309 21.0414 25 16.9692 25 12.0687V6.22578C25 5.54873 24.4579 5 23.7891 5H21.25V4.95967C21.25 4.29152 20.6904 3.75 20 3.75C19.3096 3.75 18.75 4.29152 18.75 4.95967V7.54033C18.75 8.20848 19.3096 8.75 20 8.75C20.6904 8.75 21.25 8.20848 21.25 7.54033V7.45155H22.5781V12.0687C22.5781 16.124 19.3186 19.4234 15.3124 19.4234C11.3062 19.4234 8.04686 16.124 8.04686 12.0687V7.45155H9.375V7.54033C9.375 8.20848 9.93458 8.75 10.625 8.75C11.3154 8.75 11.875 8.20848 11.875 7.54033V4.95967C11.875 4.29152 11.3154 3.75 10.625 3.75ZM29.9998 20.7602C28.8912 20.7602 27.9894 19.8584 27.9894 18.7501C27.9894 17.6417 28.8911 16.74 29.9998 16.74C31.1081 16.74 32.0098 17.6417 32.0098 18.7501C32.0098 19.8584 31.1081 20.7602 29.9998 20.7602Z" fill="#008CA3"/>
</svg>
