<svg width="14" height="18" viewBox="0 0 14 18" fill="none" xmlns="http://www.w3.org/2000/svg">
<path d="M10.7281 4.6807C10.7281 5.78378 10.3495 6.7386 9.60271 7.51909C8.85589 8.29945 7.942 8.69503 6.88634 8.69503H6.88452C5.83019 8.69465 4.91691 8.29907 4.1701 7.51909C3.42316 6.7386 3.04471 5.78378 3.04471 4.6807C3.04471 3.578 3.42316 2.62305 4.1701 1.84269C4.91654 1.06259 5.82983 0.66713 6.88452 0.666748H6.88634C7.94164 0.666748 8.85553 1.06233 9.60271 1.84269C10.3495 2.62305 10.7281 3.578 10.7281 4.6807Z" fill="#FFBB85"/>
<path d="M13.6408 14.467C13.6408 15.3373 13.3758 16.0419 12.854 16.5608C12.3383 17.0736 11.6562 17.3334 10.8269 17.3334H3.14682C2.3175 17.3334 1.63543 17.0736 1.12007 16.5608C0.597898 16.0415 0.333344 15.337 0.333344 14.467C0.333344 14.1324 0.343931 13.8012 0.365105 13.4828C0.386644 13.1573 0.430209 12.8031 0.494461 12.4294C0.5592 12.0526 0.642436 11.6964 0.7421 11.3709C0.845537 11.0339 0.98548 10.7016 1.15865 10.3832C1.3385 10.0527 1.54976 9.76479 1.78657 9.52777C2.03481 9.27969 2.33831 9.08043 2.68914 8.93522C3.03876 8.79077 3.42634 8.71753 3.84106 8.71753C4.00376 8.71753 4.16135 8.78708 4.46509 8.99384C4.65516 9.12341 4.87421 9.27091 5.116 9.4324C5.32482 9.57151 5.60763 9.70198 5.95725 9.81985C6.26452 9.92374 6.57641 9.98172 6.88453 9.99177C6.91848 9.99304 6.95243 9.99367 6.98638 9.99367C7.32857 9.99367 7.67466 9.93505 8.01588 9.81985C8.36549 9.70198 8.64867 9.57151 8.85736 9.4324C9.10172 9.26926 9.32076 9.12189 9.50804 8.99422C9.81202 8.78708 9.96937 8.71753 10.1324 8.71753C10.5468 8.71753 10.9344 8.79077 11.2842 8.93522C11.6351 9.08043 11.9386 9.28007 12.1866 9.52777C12.4237 9.76479 12.635 10.0527 12.8147 10.3832C12.988 10.7018 13.1282 11.0339 13.2313 11.3705C13.3311 11.6964 13.4145 12.0526 13.4793 12.4296C13.5432 12.8037 13.5868 13.158 13.6083 13.4826C13.6298 13.8 13.6404 14.1311 13.6408 14.467Z" fill="#6AA9FF"/>
<path d="M6.88635 8.69503H6.88452V0.666748H6.88635C7.94164 0.666748 8.85553 1.06233 9.60271 1.84269C10.3495 2.62305 10.7281 3.578 10.7281 4.6807C10.7281 5.78378 10.3495 6.7386 9.60271 7.51909C8.8559 8.29945 7.94201 8.69503 6.88635 8.69503Z" fill="#FFBB85"/>
<path fill-rule="evenodd" clip-rule="evenodd" d="M13.6408 14.467C13.6408 15.3373 13.3758 16.0419 12.854 16.5608C12.3383 17.0736 11.6562 17.3334 10.8269 17.3334H6.88452V9.99177C6.91847 9.99304 6.95242 9.99367 6.98638 9.99367C7.32857 9.99367 7.67465 9.93505 8.01587 9.81985C8.36549 9.70198 8.64866 9.57151 8.85736 9.4324C9.10171 9.26926 9.32076 9.12189 9.50804 8.99422C9.81202 8.78708 9.96936 8.71753 10.1324 8.71753C10.5468 8.71753 10.9344 8.79077 11.2842 8.93522C11.6351 9.08043 11.9386 9.28007 12.1866 9.52777C12.4237 9.76479 12.635 10.0527 12.8147 10.3832C12.988 10.7018 13.1282 11.0339 13.2313 11.3705C13.3311 11.6964 13.4145 12.0526 13.4793 12.4296C13.5432 12.8037 13.5868 13.158 13.6083 13.4826C13.6298 13.8 13.6404 14.1311 13.6408 14.467Z" fill="#497DF9"/>
</svg>
