<svg width="18" height="20" viewBox="0 0 18 20" xmlns="http://www.w3.org/2000/svg">
<path fill-rule="evenodd" clip-rule="evenodd" d="M8.99703 0C6.12797 0 3.78265 2.33458 3.78265 5.1905C3.78265 8.04642 6.12797 10.381 8.99703 10.381C11.8661 10.381 14.2114 8.04642 14.2114 5.1905C14.2114 2.33458 11.8661 0 8.99703 0Z" fill="#fff"/>
<path fill-rule="evenodd" clip-rule="evenodd" d="M17.9458 14.5287C17.8091 14.1887 17.627 13.8714 17.4221 13.5768C16.3746 12.0355 14.758 11.0155 12.9364 10.7662C12.7087 10.7435 12.4582 10.7888 12.276 10.9248C11.3197 11.6275 10.1812 11.9901 8.9971 11.9901C7.81303 11.9901 6.67454 11.6275 5.71818 10.9248C5.536 10.7888 5.28553 10.7209 5.05785 10.7662C3.23623 11.0155 1.59679 12.0355 0.572144 13.5768C0.367214 13.8714 0.185035 14.2114 0.0484442 14.5287C-0.0198512 14.6648 0.00289936 14.8234 0.0711948 14.9594C0.253374 15.2767 0.481054 15.5941 0.685984 15.8661C1.00475 16.2967 1.34632 16.682 1.73343 17.0447C2.0522 17.362 2.41651 17.6566 2.78087 17.9513C4.57969 19.2886 6.74288 19.9912 8.97435 19.9912C11.2058 19.9912 13.369 19.2886 15.1678 17.9513C15.5321 17.6793 15.8965 17.362 16.2153 17.0447C16.5796 16.682 16.9439 16.2967 17.2627 15.8661C17.4904 15.5714 17.6954 15.2767 17.8775 14.9594C17.9913 14.8234 18.0141 14.6647 17.9458 14.5287Z" fill="#fff"/>
</svg>
