<svg width="36" height="36" viewBox="0 0 36 36" fill="none" xmlns="http://www.w3.org/2000/svg">
<circle cx="18" cy="18" r="18" fill="#F5FDFF"/>
<path fill-rule="evenodd" clip-rule="evenodd" d="M17.57 14.9656L17.5684 19.0451C17.5684 19.2 17.6277 19.3481 17.7332 19.4574L20.5484 22.3752L21.3438 21.5507L18.6933 18.8036L18.695 14.9656L17.57 14.9656Z" fill="#008CA3" stroke="#008CA3" stroke-width="0.5"/>
<path fill-rule="evenodd" clip-rule="evenodd" d="M18.6963 10.3008C14.7369 10.3008 11.46 13.349 10.9112 17.2982H8.57129L11.3838 20.2137L14.1963 17.2982H12.0479C12.586 13.9941 15.3582 11.467 18.6963 11.467C22.4185 11.467 25.4463 14.6058 25.4463 18.4644C25.4463 22.323 22.4185 25.4618 18.6963 25.4618C16.604 25.4618 14.6638 24.4801 13.3734 22.7683L12.4868 23.4858C13.9919 25.4823 16.2551 26.628 18.6963 26.628C23.0386 26.628 26.5713 22.9653 26.5713 18.4644C26.5713 13.9635 23.0386 10.3008 18.6963 10.3008V10.3008Z" fill="#008CA3" stroke="#008CA3" stroke-width="0.5"/>
</svg>
